<mxfile host="app.diagrams.net" modified="2023-12-15T06:18:14.822Z" agent="Mozilla/5.0 (Windows NT 10.0; Win64; x64) AppleWebKit/537.36 (KHTML, like Gecko) Chrome/120.0.0.0 Safari/537.36" version="22.1.9" etag="dmVZKI-HVDC8Cfekv0ld" type="github">
  <diagram name="Page-1" id="c5x9VhKu1Qj9DRlh2_vg">
    <mxGraphModel>
      <root>
        <mxCell id="0" />
        <mxCell id="1" parent="0" />
      </root>
    </mxGraphModel>
  </diagram>
</mxfile>
